<?xml version="1.0" encoding="utf-8"?>
<!-- Generator: Adobe Illustrator 27.1.1, SVG Export Plug-In . SVG Version: 6.00 Build 0)  -->
<svg version="1.1" id="Слой_1" xmlns="http://www.w3.org/2000/svg" xmlns:xlink="http://www.w3.org/1999/xlink" x="0px" y="0px"
	 viewBox="0 0 760 639" style="enable-background:new 0 0 760 639;" xml:space="preserve">
<style type="text/css">
	.st0{fill:#FFFFFF;}
	.st1{fill:#4E7AFF;}
</style>
<g>
	<path class="st0" d="M246.8,220.4h67.4c1.6,0,3.1-0.6,4.2-1.7c11.5-11.6,77.9-78.3,96.6-97c1.8-1.8,0.5-4.9-2-4.9l-172,0
		c-111.3,0-201.5,90.2-201.5,201.5v2.2c0,111.3,90.2,201.5,201.5,201.5h69.7c3.2,0,5.9-2.6,5.9-5.9v-90c0-3.2-2.6-5.9-5.9-5.9h-63.8
		c-54.6,0-98.9-44.3-98.9-98.9v-2.2C147.9,264.7,192.2,220.4,246.8,220.4z"/>
	<path class="st1" d="M518,116.9l-66.8,0c-1.9,0-3.7,0.8-5,2.1c-13,13.4-84.6,86.3-97.6,99.4c-1.3,1.3-2,3.1-2,4.9v291.9
		c0,3.9,3.1,7,7,7h96.2c3.9,0,7-3.1,7-7v-289c0-3.1,2.6-5.7,5.7-5.7h54.6c55.2,0,100,44.8,100,100v0c0,55.2-44.8,100-100,100H494
		c-3.9,0-7,3.1-7,7v87.8c0,3.9,3.1,7,7,7h24c111.9,0,202.6-90.7,202.6-202.6v0C720.7,207.6,629.9,116.9,518,116.9z"/>
</g>
</svg>
