<?xml version="1.0" encoding="utf-8"?>
<!-- Generator: Adobe Illustrator 27.1.1, SVG Export Plug-In . SVG Version: 6.00 Build 0)  -->
<svg version="1.1" id="Слой_1" xmlns="http://www.w3.org/2000/svg" xmlns:xlink="http://www.w3.org/1999/xlink" x="0px" y="0px"
	 viewBox="0 0 500 500" style="enable-background:new 0 0 500 500;" xml:space="preserve">
<style type="text/css">
	.st0{fill:none;stroke:#37A8BB;stroke-width:17;stroke-miterlimit:10;}
	.st1{fill:#37A8BB;}
	.st2{fill:#FF0000;stroke:#FF0000;stroke-miterlimit:10;}
</style>
<g>
	<circle class="st0" cx="250" cy="250" r="238.3"/>
	<path class="st1" d="M402.7,335.2l17.4-8.4c0,0,19.9-3.8,13.4-17.7c-6.5-14-45.8,17.9-45.8,17.9L364,313.7l34-15.8
		c0,0,12.5-7,8.1-14.5c-4.4-7.5-15.9-2.3-15.9-2.3s-42.5,23.2-45.2,22c-2.6-1.2-8.6-4.8-8.6-4.8l-24.6-19c3.1-2.7,4.8-15.8,4.8-26.1
		l94.3-5c12.1,9.7,19,3.4,22.5-2.5c2.8-4.9,2.2-11.3-2-15.1c-7.8-7-20.2,1.2-20.2,1.2l-101.9,5.4l4,2c-4.1-5-6.7-14.5-6.7-14.5
		l34.7-20.2l11.9-7l32.3,15.4c0,0,19.9,13.4,25.3-1.7c5.4-15.1-41.4-25.8-41.4-25.8l22.3-13.3l23.1,15c0,0,15.4,12.9,22.3,0.8
		c7-12.2-28.9-26.4-28.9-26.4l18.7-10.7c0,0,23.1-10.1,15.5-22c-7.6-11.9-45.8,21.2-45.8,21.2l0.9-19.4c0,0,6.1-19.3-9.2-20.2
		c-15.4-0.9-6,48.8-6,48.8l-22.9,14.7l2.2-37.4c0,0-0.2-14.3-8.9-14c-8.7,0.3-9.6,12.9-9.6,12.9s0.2,48.5-2,50.2
		c-2.3,1.8-8.3,5.3-8.3,5.3l-34.1,19l-7.8-9.3l48-93.1c14.6-5.4,12.8-14.5,9.5-20.5c-2.7-5-8.5-7.8-13.9-6.1
		c-10,3.1-9.4,17.9-9.4,17.9L278.7,185c-6.3-4.2-19.2-35.1-19.2-35.1l0.5-13.7l30.3-18.9c0,0,22-9.6,12.2-22.3
		c-9.8-12.7-44.1,21-44.1,21l0.8-25.9l25.1-11.4c0,0,19.2-6,12.7-18.4s-37.8,10.1-37.8,10.1l1-21.5c0,0,3.9-24.9-10.2-24.9
		c-14.1,0-6.8,50-6.8,50l-15.8-11.1c0,0-13-15.5-22-3.1c-9.1,12.4,37.9,31.4,37.9,31.4v27.2l-30.4-22c0,0-12.2-7.5-16.6,0
		c-4.4,7.5,5.7,15,5.7,15s40.9,25.9,41.2,28.8c0.3,2.9,0,9.8,0,9.8l-20.6,30.3l0,0l-44.8-80.9c3.5-15.2-5.2-18.6-12.1-19.1
		c-5.7-0.4-11.1,2.9-12.7,8.4c-2.8,10.1,9.9,17.6,9.9,17.6l47.5,85.7l-9.3,15.8l-32.7-18.6l-12-6.8l-2.9-35.6c0,0,1.6-24-14.2-21
		c-15.8,2.9-1.5,48.8-1.5,48.8l-22.7-12.6l1.4-27.6c0,0,3.5-19.8-10.5-19.7c-14,0.1-8.3,38.3-8.3,38.3L79,142.3
		c0,0-20.3-14.9-26.8-2.3c-6.5,12.6,41.3,29,41.3,29l-17.2,9c0,0-19.8,4.4-12.9,18.2c6.9,13.8,45.2-19.3,45.2-19.3l24.2,12.5
		l-33.5,16.9c0,0-12.3,7.4-7.6,14.7s16,1.8,16,1.8s41.8-24.5,44.4-23.5c2.7,1.1,8.8,4.5,8.8,4.5s33.1,17.3,31.2,17.6
		c-0.9,0.2-3.1,4.5-5.1,8.9c-2.8,6.2-4.5,12.9-5.2,19.7l2.8-9.9l-100.3,0.4c-11.6-10.4-18.8-4.4-22.6,1.3
		c-3.1,4.8-2.8,11.2,1.2,15.1c7.5,7.4,20.2-0.1,20.2-0.1h101.3L182,250c-0.4,4.5-0.2,9.1,0.8,13.5l3.7,17.4l-27.3,16.7l-11.6,7.3
		l-32.7-14.3c0,0-20.3-12.8-25.3,2.5c-4.9,15.3,42.2,24.5,42.2,24.5l-21.8,14l-23.6-14.3c0,0-15.7-12.5-22.4-0.1
		c-6.6,12.4,29.7,25.5,29.7,25.5L75.3,354c0,0-22.7,10.8-14.8,22.5c8,11.7,45.1-22.6,45.1-22.6l-0.3,19.4c0,0-5.5,19.5,9.9,19.9
		c15.4,0.5,4.5-49,4.5-49l22.5-15.4l-1,37.5c0,0,0.7,14.3,9.4,13.7c8.7-0.6,9.2-13.2,9.2-13.2s-1.8-48.4,0.5-50.3
		c2.2-1.8,8.1-5.6,8.1-5.6l26.8-16.1l10.6,10.5l-41.6,89.1c-14.3,6.1-12,15.2-8.4,21c3,4.8,8.9,7.3,14.2,5.3
		c9.8-3.6,8.5-18.3,8.5-18.3l40.2-85.9c0.6,0.6,1.1,1,1.3,1.2c1.3,1.4,22.7,7,22.7,7v24.8l-0.1,13.7l-29.7,19.9
		c0,0-21.7,10.3-11.5,22.7c10.2,12.4,43.4-22.4,43.4-22.4l0,25.9L220,421.7c0,0-19,6.6-12.1,18.8c6.9,12.2,37.5-11.3,37.5-11.3
		l-0.4,21.5c0,0-3.1,25,11,24.5c14.1-0.4,5.3-50.2,5.3-50.2l16.2,10.6c0,0,13.4,15.1,22.1,2.4c8.7-12.7-38.8-30.1-38.8-30.1
		l-0.9-27.2l31,21.1c0,0,12.4,7.1,16.6-0.5c4.2-7.7-6.2-14.8-6.2-14.8s-41.7-24.6-42.1-27.5s-0.3-9.8-0.3-9.8l0.5-26.6l17.8-5.1l0,0
		l47.8,76.6c-2.6,15.3,6.2,18.3,13,18.5c5.7,0.1,11-3.5,12.2-9c2.3-10.2-10.8-17.1-10.8-17.1l-48.2-77.2
		c0.4,0.7,13.7-14.2,13.7-14.2l23.4,17.6l11.8,7.1l1.8,35.7c0,0-2.3,23.9,13.6,21.5s3.1-48.7,3.1-48.7l22.3,13.3l-2.2,27.5
		c0,0-4.1,19.7,9.9,20c14,0.4,9.6-38,9.6-38l18.3,11.4c0,0,19.9,15.5,26.7,3.1C450,353.1,402.7,335.2,402.7,335.2z M258.3,303.2
		c-60.6,3.3-52.5-54.6-50.9-58.1c1.6-3.5,42.6-70.4,42.6-70.4l33.9,49.9C320.1,288.3,258.3,303.2,258.3,303.2z"/>
	<path class="st1" d="M250,200.4c0,0,9.3,31.5,12,36.7c2.7,5.2,8.7,21.1,15.2,14.4s-6.4-24.7-6.4-24.7l-18.9-29.1
		C251.9,197.7,249.1,197.4,250,200.4z"/>
	<path class="st1" d="M228,260.2c0,0,2,19,22.7,24.6c20.8,5.6-2.9,6.8-2.9,6.8s-22.4-3.3-26.4-19.2c-4.1-15.9,1-17.1,1-17.1
		S227.8,253.8,228,260.2z"/>
	<path class="st2" d="M277.1,251.5"/>
</g>
</svg>
