<?xml version="1.0"?>
<svg width="820" height="250" xmlns="http://www.w3.org/2000/svg" xmlns:svg="http://www.w3.org/2000/svg" preserveAspectRatio="xMidYMid meet" version="1.0">
 <g class="layer">
  <title>Layer 1</title>
  <g fill="#000000" id="svg_1">
   <path d="m2010.8,1826.8c-0.2,-1.9 -1.1,-2.4 -5,-2.9c-6.5,-1 -10.5,-3.6 -12.9,-8.7c-5,-10.2 1.2,-20.2 13.4,-21.8c3.7,-0.5 4.7,-1.1 4.7,-2.5c0,-1.4 0.7,-1.9 3,-1.9c2.2,0 3,0.5 3,1.8c0,1.4 1.3,2.1 5.9,3c7.1,1.5 11.5,5.1 13,10.8c2.7,10.1 -4.7,19.4 -15.4,19.4c-3.1,0 -3.5,0.3 -3.5,2.5c0,2.1 -0.5,2.5 -2.9,2.5c-2.3,0 -3,-0.5 -3.3,-2.2zm0.2,-18.4c0,-10.2 -0.2,-11.5 -1.6,-11c-0.9,0.3 -2.5,0.6 -3.6,0.6c-1.1,0 -3.5,1.5 -5.4,3.4c-3.7,3.7 -4.4,8 -2.1,12.6c1.4,2.8 7,6 10.5,6c2.2,0 2.2,-0.2 2.2,-11.6zm13.7,9.9c9.9,-4.7 6.7,-20.3 -4.3,-20.3l-3.4,0l0,11c0,10.5 0.1,11 2.1,11c1.2,0 3.7,-0.7 5.6,-1.7z" id="svg_2"/>
   <path d="m620,1809l0,-19l14.5,0l14.5,0l0,2.5l0,2.5l-11.5,0l-11.5,0l0,5.5l0,5.5l7.5,0c11.8,0 17.5,3.5 17.5,10.7c0,7.7 -7.6,11.3 -23.6,11.3l-7.4,0l0,-19zm22.8,12.4c2.6,-1.8 2.9,-6 0.5,-8.6c-1.3,-1.4 -3.1,-1.8 -9.5,-1.8l-7.8,0l0,6l0,6l7.3,0c4.9,0 8,-0.5 9.5,-1.6z" id="svg_3"/>
   <path d="m665,1809.2l0,-19.2l3,0l3,0l0,6.4l0,6.3l7.9,0.6c4.3,0.3 8.9,1.1 10.3,1.7c5.2,2.4 7.3,10.2 4.3,16c-2.4,4.6 -6.4,6 -18.1,6.7l-10.4,0.6l0,-19.1zm21.4,11.7c3.3,-2.6 3.6,-7.9 0.6,-10.9c-1.6,-1.6 -3.3,-2 -9,-2l-7,0l0,7.5l0,7.5l6.4,0c4.9,0 6.9,-0.5 9,-2.1z" id="svg_4"/>
   <path d="m702,1809l0,-19l3,0l3,0l0,19l0,19l-3,0l-3,0l0,-19z" id="svg_5"/>
   <path d="m732,1811.5l0,-16.5l-6.5,0c-6.3,0 -6.5,-0.1 -6.5,-2.5l0,-2.5l15.5,0l15.5,0l0,2.5c0,2.4 -0.3,2.5 -6,2.5l-6,0l0,16.5l0,16.5l-3,0l-3,0l0,-16.5z" id="svg_6"/>
   <path d="m771.7,1826.5c-13,-4.6 -16.6,-20.8 -6.8,-30.6c5.6,-5.7 14.5,-7.4 21.9,-4.4c16,6.7 16,28.3 0,35c-4.5,1.8 -10,1.9 -15.1,0zm13.9,-5.1c4,-1.9 7.4,-7.7 7.4,-12.5c0,-8 -7.9,-14.8 -15.7,-13.6c-13.6,2.2 -16.5,19.7 -4.2,25.9c4.3,2.2 8.1,2.3 12.5,0.2z" id="svg_7"/>
   <path d="m813,1809.1l0,-19.1l6.9,0c3.7,0 9.3,0.4 12.2,1c9.3,1.7 12.7,8.5 7.4,14.8c-2.9,3.4 -3.1,4.2 -1.1,4.2c1.9,0 5.6,4.8 5.6,7.2c0,3.2 -2.7,7.3 -5.7,8.7c-1.5,0.7 -7.9,1.5 -14,1.8l-11.3,0.6l0,-19.2zm23,11.9c2.4,-2.4 2.6,-5.3 0.4,-7.4c-1.1,-1.2 -3.6,-1.6 -9.5,-1.6l-7.9,0l0,5.5l0,5.5l7.5,0c6.2,0 7.9,-0.4 9.5,-2zm-1.8,-15.7c2.4,-2.1 2.3,-5.8 -0.2,-8.3c-1.6,-1.6 -3.3,-2 -8.5,-2l-6.5,0l0,6l0,6l6.7,0c4.8,0 7.2,-0.5 8.5,-1.7z" id="svg_8"/>
   <path d="m853.7,1826.3c0.4,-1 4.1,-9.4 8.4,-18.8c7.1,-16 7.8,-17 10.5,-17.3c2.9,-0.3 3.1,0 11.2,18c4.5,10.1 8.2,18.6 8.2,19.1c0,0.4 -1.3,0.7 -2.9,0.7c-2.4,0 -3.1,-0.6 -4.5,-4.5l-1.8,-4.5l-9.9,0l-10,0l-2,4.5c-1.7,3.9 -2.4,4.5 -4.9,4.5c-2.4,0 -2.8,-0.3 -2.3,-1.7zm25.7,-14.5c-1.8,-5.8 -6.6,-15 -7.3,-14.2c-0.4,0.5 -1.5,2.7 -2.4,4.9c-0.8,2.2 -2.3,5.7 -3.1,7.8l-1.6,3.7l7.6,0c7.3,0 7.5,-0.1 6.8,-2.2z" id="svg_9"/>
   <path d="m905.9,1822.5l3.9,-5.5l-3.9,-3.9c-3.5,-3.5 -3.9,-4.4 -3.9,-9c0,-4.4 0.5,-5.6 3.3,-8.6c3.6,-4 9.3,-5.5 20.3,-5.5l6.4,0l0,19l0,19l-3,0c-3,0 -3,-0.1 -3,-5.5l0,-5.5l-5.4,0l-5.3,0l-3.7,5.5c-3,4.6 -4.1,5.5 -6.6,5.5l-2.9,0l3.8,-5.5zm20.1,-19l0,-8.5l-4.2,0c-6,0 -11.6,1.8 -12.8,4c-1.7,3.2 -1.2,8.8 1,11c1.6,1.6 3.3,2 9,2l7,0l0,-8.5z" id="svg_10"/>
   <path d="m976,1811.5l0,-16.5l-6,0c-5.7,0 -6,-0.1 -6,-2.5l0,-2.5l15.5,0l15.5,0l0,2.5c0,2.4 -0.2,2.5 -6.5,2.5l-6.5,0l0,16.5l0,16.5l-3,0l-3,0l0,-16.5z" id="svg_11"/>
   <path d="m1007,1809l0,-19l13,0l13,0l0,2.5l0,2.5l-10,0l-10,0l0,5.5l0,5.5l9,0c8.9,0 9,0 9,2.5c0,2.5 -0.1,2.5 -9,2.5l-9,0l0,6l0,6l10.5,0l10.5,0l0,2.5l0,2.5l-13.5,0l-13.5,0l0,-19z" id="svg_12"/>
   <path d="m1044,1827.4c0,-0.3 2.9,-4.7 6.4,-9.7l6.4,-9.2l-6.4,-9.3l-6.4,-9.2l3.4,0c3,0 3.8,0.6 7.7,6.5c2.4,3.5 4.7,6.5 5.1,6.5c0.3,0 2.7,-2.9 5.3,-6.5c3.9,-5.5 5.1,-6.5 7.6,-6.5c1.6,0 2.9,0.3 2.9,0.6c0,0.3 -2.7,4.4 -6,9.1l-6,8.6l6.5,9.3c3.6,5.1 6.5,9.5 6.5,9.8c0,0.3 -1.3,0.6 -3,0.6c-2.5,0 -3.7,-1 -8.1,-7c-2.8,-3.8 -5.4,-7 -5.7,-7c-0.4,0 -2.9,3.2 -5.5,7c-4.1,6 -5.2,7 -7.8,7c-1.6,0 -2.9,-0.3 -2.9,-0.6z" id="svg_13"/>
   <path d="m1090,1809l0,-19l3,0l3,0l0,8l0,8l10,0l10,0l0,-8l0,-8l3,0l3,0l0,19l0,19l-3,0l-3,0l0,-8.5l0,-8.5l-10,0l-10,0l0,8.5l0,8.5l-3,0l-3,0l0,-19z" id="svg_14"/>
   <path d="m1139,1809l0,-19l3,0l2.9,0l0.3,13.8l0.3,13.7l10.4,-13.7c9.1,-12 10.8,-13.8 13.3,-13.8l2.8,0l0,19l0,19l-3,0l-3,0l0,-13.5c0,-7.4 -0.4,-13.5 -0.8,-13.5c-0.4,0 -5.2,6.1 -10.7,13.5c-8.6,11.5 -10.4,13.4 -12.7,13.5l-2.8,0l0,-19z" id="svg_15"/>
   <path d="m1188,1809l0,-19l3,0l3,0l0,8l0,8l4.3,0c4.2,0 4.3,-0.1 9.6,-8c4.7,-6.9 5.8,-8 8.3,-8c3.3,0 3.5,-0.4 -3.5,9.4c-2.6,3.7 -5.1,7.4 -5.4,8.2c-0.3,0.8 2.2,5.4 5.6,10.3c3.4,4.9 6.1,9.2 6.1,9.5c0,0.3 -1.3,0.6 -2.8,0.6c-2.5,0 -3.7,-1.1 -8.3,-8c-5.3,-7.8 -5.5,-7.9 -9.6,-8l-4.3,0l0,8l0,8l-3,0l-3,0l0,-19z" id="svg_16"/>
   <path d="m1229.5,1822.8c1.3,-2.9 5,-11.4 8.3,-18.8c5.7,-12.5 6.3,-13.5 9,-13.8c2.8,-0.3 3.1,0.1 8.2,11.5c3,6.5 6.8,15.1 8.7,19.1l3.2,7.2l-2.9,0c-2.6,0 -3.3,-0.7 -5.2,-4.5l-2.2,-4.5l-9.8,0l-9.7,0l-2,4.5c-1.7,3.9 -2.4,4.5 -5,4.5l-3,0l2.4,-5.2zm24.5,-9.5c0,-1.5 -6.4,-16.3 -7,-16.3c-0.4,0 -2.3,3.8 -4.2,8.5l-3.6,8.5l7.4,0c4.1,0 7.4,-0.3 7.4,-0.7z" id="svg_17"/>
   <path d="m1306.4,1826.1c-5,-2.3 -6.1,-3.8 -4.2,-5.7c1.2,-1.2 1.9,-1.1 5.3,0.7c6,3.1 12,2.2 16.2,-2.5c1.8,-2 3.3,-4.5 3.3,-5.6c0,-1.8 -0.6,-2 -8.5,-2c-8.4,0 -8.5,0 -8.5,-2.5c0,-2.5 0.1,-2.5 8.5,-2.5c9.9,0 10.5,-0.8 5.2,-6.6c-4.2,-4.7 -10.2,-5.6 -16.2,-2.5c-3.4,1.8 -4.1,1.9 -5.3,0.7c-1.9,-1.9 -0.8,-3.4 4.2,-5.7c5,-2.3 10.5,-2.4 15.4,-0.4c7.7,3.3 11.5,9.1 11.5,17.5c0,8.4 -3.8,14.2 -11.5,17.5c-4.9,2 -10.4,1.9 -15.4,-0.4z" id="svg_18"/>
   <path d="m1343,1825.5c0,-1.8 0.7,-2.6 2.5,-3.1c1.4,-0.3 3,-1.5 3.6,-2.6c0.9,-1.6 2.7,-19.9 2.9,-28c0,-1.6 1.3,-1.8 13.5,-1.8l13.5,0l0,19l0,19l-3,0l-3,0l0,-16.5l0,-16.5l-7.8,0l-7.9,0l-1.1,12.4c-1.4,16.2 -3.7,20.6 -10.6,20.6c-2.1,0 -2.6,-0.5 -2.6,-2.5z" id="svg_19"/>
   <path d="m1395,1809l0,-19l13.5,0l13.5,0l0,2.5l0,2.5l-10.5,0l-10.5,0l0,5.5l0,5.5l9,0c8.9,0 9,0 9,2.5c0,2.5 -0.1,2.5 -9,2.5l-9,0l0,6l0,6l10.5,0l10.5,0l0,2.5l0,2.5l-13.5,0l-13.5,0l0,-19z" id="svg_20"/>
   <path d="m1436,1809l0,-19l3,0l3,0l0,8l0,8l4.3,0c4.1,0 4.3,-0.1 9.5,-8c4.6,-7.1 5.6,-8 8.3,-8l3,0l-6.4,9.3l-6.5,9.2l6.4,9.3c3.5,5.2 6.4,9.6 6.4,9.8c0,0.2 -1.3,0.4 -2.9,0.4c-2.6,0 -3.7,-1.1 -8.6,-8c-5.4,-7.7 -5.8,-8 -9.6,-8l-3.9,0l0,8l0,8l-3,0l-3,0l0,-19z" id="svg_21"/>
   <path d="m1488,1811.5l0,-16.5l-6.5,0c-6.3,0 -6.5,-0.1 -6.5,-2.5l0,-2.5l15.5,0l15.5,0l0,2.5c0,2.4 -0.3,2.5 -6,2.5l-6,0l0,16.5l0,16.5l-3,0l-3,0l0,-16.5z" id="svg_22"/>
   <path d="m1518,1808.8l0,-19.1l10.4,0.6c6.5,0.4 11.6,1.2 13.5,2.2c5.9,3 8.3,9.7 5.7,15.8c-2.1,5.2 -6.5,7.5 -15.8,8.3l-7.8,0.7l0,5.3c0,5.3 0,5.4 -3,5.4l-3,0l0,-19.2zm22.4,0.3c1.2,-1.3 2,-3.4 2,-5.6c0,-5.5 -2.7,-7.5 -11.2,-8.2l-7.2,-0.6l0,8.8l0,8.8l7.2,-0.6c5.3,-0.5 7.7,-1.1 9.2,-2.6z" id="svg_23"/>
   <path d="m1568.9,1825.2c-3.9,-2 -5.8,-3.8 -7.6,-7.1c-5,-9.6 -1.8,-20.4 7.6,-25.3c13.9,-7.3 29.1,1.2 29.1,16.2c0,15 -15.2,23.5 -29.1,16.2zm15.6,-3.6c4.5,-1.9 7.5,-6.9 7.5,-12.6c0,-10.6 -9.5,-16.7 -19.5,-12.6c-9.8,4.1 -10,20.9 -0.2,25.1c4.2,1.8 7.9,1.8 12.2,0.1z" id="svg_24"/>
   <path d="m1612,1809l0,-19l3,0l3,0l0,8l0,8l10.5,0l10.5,0l0,-8l0,-8l3,0l3,0l0,19l0,19l-3,0l-2.9,0l-0.3,-8.2l-0.3,-8.3l-10.2,-0.3l-10.3,-0.3l0,8.6l0,8.5l-3,0l-3,0l0,-19z" id="svg_25"/>
   <path d="m1661,1809l0,-19l3,0l3,0l0,13.5c0,7.4 0.3,13.5 0.8,13.5c0.4,-0.1 5.2,-6.1 10.7,-13.5c8.6,-11.6 10.4,-13.5 12.8,-13.5l2.7,0l0,19l0,19l-3,0l-3,0l0,-13.5c0,-7.4 -0.3,-13.5 -0.7,-13.5c-0.5,0.1 -5.3,6.1 -10.8,13.5c-8.6,11.7 -10.3,13.5 -12.7,13.5l-2.8,0l0,-19z" id="svg_26"/>
   <path d="m1710,1809l0,-19l3,0l3,0l0,8l0,8l4.3,0c4.3,0 4.4,-0.1 9.8,-8c4.5,-6.7 5.8,-8 8.2,-8c1.5,0 2.7,0.2 2.7,0.5c0,0.3 -2.7,4.3 -6,8.9c-3.3,4.7 -6,8.7 -6,9.1c0,0.4 3,4.9 6.6,10.1l6.5,9.4l-3.3,0c-3.1,0 -3.8,-0.7 -8.7,-8c-5.4,-7.9 -5.5,-8 -9.8,-8l-4.3,0l0,8l0,8l-3,0l-3,0l0,-19z" id="svg_27"/>
   <path d="m1750,1827.3c0,-0.5 3.7,-9 8.2,-19.1c8.1,-18 8.3,-18.3 11.2,-18c2.7,0.3 3.4,1.3 10.5,17.3c10.2,22.5 9.6,20.5 6.1,20.5c-2.5,0 -3.2,-0.6 -4.9,-4.5l-2,-4.5l-9.9,0l-10,0l-1.9,4.5c-1.5,3.8 -2.2,4.5 -4.5,4.5c-1.6,0 -2.8,-0.3 -2.8,-0.7zm23.5,-21.4c-3.4,-8.2 -4.2,-9.6 -4.8,-8.8c-0.6,0.6 -6.7,15.7 -6.7,16.3c0,0.3 3.4,0.6 7.5,0.6l7.4,0l-3.4,-8.1z" id="svg_28"/>
   <path d="m1834,1811.5l0,-16.5l-6,0c-5.7,0 -6,-0.1 -6,-2.5l0,-2.5l15.5,0l15.5,0l0,2.5c0,2.4 -0.2,2.5 -6.5,2.5l-6.5,0l0,16.5l0,16.5l-3,0l-3,0l0,-16.5z" id="svg_29"/>
   <path d="m1865,1809l0,-19l13,0l13,0l0,2.5l0,2.5l-10,0l-10,0l0,5.5l0,5.5l9,0c8.9,0 9,0 9,2.5c0,2.5 -0.1,2.5 -9,2.5l-9,0l0,6l0,6l10.5,0l10.5,0l0,2.5l0,2.5l-13.5,0l-13.5,0l0,-19z" id="svg_30"/>
   <path d="m1901,1825c0,-1.6 0.3,-2.9 0.8,-2.9c5.3,0.9 7,-3.3 7.8,-19.5l0.7,-12.6l13.4,0l13.3,0l0,19l0,19l-3,0l-3,0l0,-16.5l0,-16.5l-7.8,0l-7.9,0l-0.6,10.4c-0.9,16.6 -3.8,22.6 -10.8,22.6c-2.6,0 -2.9,-0.4 -2.9,-3z" id="svg_31"/>
   <path d="m1953,1809l0,-19l13.5,0l13.5,0l0,2.5l0,2.5l-10.5,0l-10.5,0l0,5.5l0,5.5l9.5,0c9.5,0 9.5,0 9.5,2.5c0,2.5 0,2.5 -9.5,2.5l-9.5,0l0,6l0,6l11,0l11,0l0,2.5l0,2.5l-14,0l-14,0l0,-19z" id="svg_32"/>
   <path d="m2056.9,1825.2c-13.4,-7 -13.4,-25.4 0,-32.4c13.9,-7.3 29.1,1.2 29.1,16.2c0,15 -15.2,23.5 -29.1,16.2zm15.6,-3.6c4.5,-1.9 7.5,-6.9 7.5,-12.6c0,-10.6 -9.5,-16.7 -19.5,-12.6c-9.8,4.1 -10,20.9 -0.2,25.1c4.2,1.8 7.9,1.8 12.2,0.1z" id="svg_33"/>
   <path d="m2100,1809l0,-19l3,0l3,0l0,8l0,8l10.5,0l10.5,0l0,-8l0,-8l3,0l3,0l0,19l0,19l-3,0l-2.9,0l-0.3,-8.2l-0.3,-8.3l-10.2,-0.3l-10.3,-0.3l0,8.6l0,8.5l-3,0l-3,0l0,-19z" id="svg_34"/>
   <path d="m2149,1809l0,-19l3,0l3,0l0,6.4l0,6.3l8.1,0.6c4.4,0.4 9.2,1.2 10.7,1.9c3.7,1.8 6.5,7.7 5.7,12.1c-1.4,7.4 -8.7,10.7 -23.6,10.7l-6.9,0l0,-19zm22.1,12.1c1.7,-1.3 2.3,-2.9 2.3,-5.6c0,-5.6 -2.9,-7.5 -11.5,-7.5l-6.9,0l0,7.5l0,7.5l6.9,0c5.2,0 7.4,-0.4 9.2,-1.9z" id="svg_35"/>
   <path d="m2186,1809l0,-19l3,0l3,0l0,19l0,19l-3,0l-3,0l0,-19z" id="svg_36"/>
   <path d="m2234,1809l0,-19l3,0l3,0l0,8l0,8l4.3,0c4.2,0 4.3,-0.1 9.6,-8c4.7,-6.9 5.8,-8 8.3,-8c3.3,0 3.5,-0.4 -3.5,9.4c-2.6,3.7 -5.1,7.4 -5.4,8.2c-0.3,0.8 2.2,5.4 5.6,10.3c3.4,4.9 6.1,9.2 6.1,9.5c0,0.3 -1.3,0.6 -2.8,0.6c-2.5,0 -3.7,-1.1 -8.3,-8c-5.3,-7.8 -5.5,-7.9 -9.6,-8l-4.3,0l0,8l0,8l-3,0l-3,0l0,-19z" id="svg_37"/>
   <path d="m2286.5,1826.2c-13,-6.2 -15.6,-21.7 -5.2,-30.9c4.7,-4.1 9.8,-5.7 16,-5c18,2.2 23.6,24.4 8.6,34.4c-5.2,3.4 -13.9,4.1 -19.4,1.5zm14.4,-5c5.2,-2.6 7.5,-6.3 7.5,-12.2c0,-5.9 -2.3,-9.6 -7.5,-12.2c-6.7,-3.5 -14.6,-1.1 -18.1,5.3c-6.5,12.2 5.9,25.4 18.1,19.1z" id="svg_38"/>
   <path d="m2328,1809l0,-19.3l10.8,0.5c11.9,0.6 16.1,2 18,6.3c1.9,4.1 1.4,6.4 -1.8,9.6l-2.9,3l2.5,1.1c3.8,1.8 5.8,6.2 4.4,10.2c-1.7,5.3 -5.5,6.7 -19.1,7.3l-11.9,0.6l0,-19.3zm23.4,12.7c2.1,-1.6 2.4,-6 0.6,-8.2c-0.9,-1.1 -3.4,-1.5 -9.6,-1.5l-8.4,0l0,5.5l0,5.5l7.8,0c4.9,0 8.5,-0.5 9.6,-1.3zm-1,-16.9c2.1,-3 2,-5.4 -0.4,-7.8c-1.6,-1.6 -3.3,-2 -9,-2l-7,0l0,6l0,6l7.4,0c6.6,0 7.7,-0.3 9,-2.2z" id="svg_39"/>
   <path d="m2373,1808.8l0,-19.1l10.4,0.6c15.4,0.9 20.1,3.9 20.1,13.2c0,8.6 -4.5,12.1 -17,13.2l-7.5,0.6l0,5.3c0,5.3 0,5.4 -3,5.4l-3,0l0,-19.2zm18.4,2.2c5.6,-1.2 7.8,-5.6 5.6,-10.9c-1.4,-3.6 -2.6,-4.1 -11.2,-4.8l-6.8,-0.6l0,8.7l0,8.6l4.3,0c2.3,0 6,-0.5 8.1,-1z" id="svg_40"/>
   <path d="m2417,1809l0,-19l3,0l3,0l0,6.4l0,6.3l8,0.6c12.5,1 16,3.6 16,12.1c0,9 -6.6,12.6 -23.1,12.6l-6.9,0l0,-19zm22,12c1.3,-1.3 2,-3.3 2,-5.9c0,-5.5 -2.5,-7.1 -11.2,-7.1l-6.8,0l0,7.5l0,7.5l7,0c5.7,0 7.4,-0.4 9,-2z" id="svg_41"/>
   <path d="m2454,1809l0,-19l3,0l3,0l0,19l0,19l-3,0l-3,0l0,-19z" id="svg_42"/>
   <path d="m1276,1813.5c0,-2.4 0.2,-2.5 7,-2.5c6.8,0 7,0.1 7,2.5c0,2.4 -0.2,2.5 -7,2.5c-6.8,0 -7,-0.1 -7,-2.5z" id="svg_43"/>
   <path d="m1798,1813.5c0,-2.4 0.2,-2.5 7,-2.5c6.8,0 7,0.1 7,2.5c0,2.4 -0.2,2.5 -7,2.5c-6.8,0 -7,-0.1 -7,-2.5z" id="svg_44"/>
   <path d="m2206,1813.5c0,-2.4 0.2,-2.5 7,-2.5c6.8,0 7,0.1 7,2.5c0,2.4 -0.2,2.5 -7,2.5c-6.8,0 -7,-0.1 -7,-2.5z" id="svg_45"/>
  </g>
  <g id="svg_109">
   <g fill="#008d5b" id="svg_46">
    <path d="m433.69,177.31c0,-1.54 0.56,-2.01 1.03,-0.85c0.21,0.6 2.18,0.64 15.85,0.56c13.63,-0.13 15.59,-0.04 15.59,0.51c0,0.56 -2.01,0.64 -15.81,0.51c-10.6,-0.09 -15.81,0.04 -15.81,0.34c0,0.21 -0.17,0.43 -0.43,0.43c-0.21,0 -0.43,-0.68 -0.43,-1.5l0.01,0z" id="svg_47"/>
    <path d="m438.52,158.86c0.38,-0.09 1.07,-0.09 1.5,0c0.38,0.13 0.04,0.21 -0.77,0.21c-0.81,0 -1.15,-0.09 -0.73,-0.21z" id="svg_48"/>
   </g>
   <g fill="#20a276" id="svg_49">
    <path d="m416.94,226.06c-1.97,-1.03 -2.91,-1.79 -4.02,-3.29l-1.03,-1.41l0,-33.8l0,-33.8l1.28,-2.01c2.18,-3.46 0,-3.29 37.85,-3.29c22.64,0 33.84,0.13 34.65,0.47c1.71,0.64 3.12,2.05 4.02,4.02c0.77,1.62 0.81,3.55 0.81,34.31c0,28.45 -0.09,32.77 -0.64,34.18c-0.9,2.09 -2.22,3.46 -4.27,4.4c-1.62,0.77 -3.55,0.81 -34.61,0.81c-27.69,0 -33.07,-0.09 -34.05,-0.6l0.01,0.01zm22.94,-6.24c0.17,-0.26 4.06,-0.43 10.25,-0.43c6.2,0 10.08,0.17 10.25,0.43c0.38,0.64 1.67,0.51 3.8,-0.43l1.97,-0.81l0,-20.08c0,-18.67 -0.04,-20.12 -0.73,-20.51c-0.73,-0.38 -0.73,-0.43 0,-0.98c0.68,-0.51 0.73,-1.45 0.64,-11.45l-0.13,-10.89l-15.34,-0.13c-8.46,-0.04 -15.51,0.04 -15.72,0.26c-0.26,0.26 -0.43,14.74 -0.26,22.3c0,0.6 -0.13,8.76 -0.3,18.16c-0.13,9.4 -0.13,18.54 0.09,20.29c0.34,3.12 0.38,3.2 1.84,3.93c1.71,0.81 3.25,0.98 3.63,0.34l0.01,0z" id="svg_50"/>
   </g>
   <g fill="#f24216" id="svg_51">
    <path d="m430.27,140.23c0,-1.03 0.09,-1.03 5.98,-1.32c3.29,-0.13 9.23,-0.13 13.24,0c7.26,0.3 7.26,0.3 7.26,1.32l0,0.98l-13.24,0l-13.24,0l0,-0.98z" id="svg_52"/>
    <path d="m458.47,140.14c0,-0.94 0.17,-1.07 1.5,-1.07c1.32,0 1.5,0.13 1.5,1.07c0,0.94 -0.17,1.07 -1.5,1.07c-1.32,0 -1.5,-0.13 -1.5,-1.07z" id="svg_53"/>
    <path d="m412.41,137.79c-0.26,-0.47 -0.51,-1.54 -0.51,-2.35c0,-1.2 0.17,-1.5 0.85,-1.5c0.77,0 0.85,0.3 0.85,2.35c0,2.48 -0.3,2.91 -1.2,1.5l0.01,0z" id="svg_54"/>
    <path d="m488.5,137.5c-0.43,-0.17 -0.56,-5.43 -0.56,-24.31l0,-24.1l1.28,0l1.28,0l0,23.41c0,12.86 -0.13,23.8 -0.26,24.35c-0.26,0.94 -0.68,1.07 -1.75,0.64l0.01,0.01z" id="svg_55"/>
    <path d="m411.9,119.42c0,-2.69 0.09,-2.99 0.85,-2.99c0.77,0 0.85,0.3 0.85,2.99c0,2.69 -0.09,2.99 -0.85,2.99c-0.77,0 -0.85,-0.3 -0.85,-2.99z" id="svg_56"/>
    <path d="m495.64,86.31c0,-1.03 0.09,-1.07 2.78,-1.07c3.72,0 6.92,-0.73 7.65,-1.75c0.38,-0.56 0.51,-1.54 0.34,-2.82c-0.21,-2.14 0,-2.18 1.97,-0.43c1.11,1.03 1.24,3.16 0.3,5c-0.85,1.67 -2.73,2.14 -8.42,2.14l-4.61,0l0,-1.07l-0.01,0z" id="svg_57"/>
    <path d="m500.77,76.65l0,-1.28l1.71,0.94c0.94,0.56 1.71,1.11 1.71,1.32c0,0.17 -0.77,0.34 -1.71,0.34c-1.62,0 -1.71,-0.09 -1.71,-1.32z" id="svg_58"/>
    <path d="m495.21,73.49c0,-0.94 -0.17,-1.07 -1.71,-1.07c-1.24,0 -1.71,-0.17 -1.71,-0.64c0,-0.34 -0.38,-0.64 -0.85,-0.64c-1.2,0 -2.56,-1.28 -2.56,-2.44c0,-0.56 0.13,-0.98 0.26,-0.98c0.51,0 9.95,6.2 10,6.54c0,0.17 -0.77,0.3 -1.71,0.3c-1.54,0 -1.71,-0.09 -1.71,-1.07l-0.01,0z" id="svg_59"/>
    <path d="m478.98,64.31c-0.47,-0.47 -1.03,-0.85 -1.28,-0.85c-0.21,0 -0.43,-0.17 -0.43,-0.38c0,-0.21 -0.56,-0.47 -1.2,-0.6c-0.68,-0.13 -1.71,-0.73 -2.26,-1.32c-0.56,-0.6 -1.28,-1.11 -1.54,-1.11c-0.3,0 -0.56,-0.17 -0.56,-0.43c0,-0.21 -0.34,-0.43 -0.77,-0.43c-0.43,0 -1.03,-0.38 -1.37,-0.85c-0.34,-0.47 -0.85,-0.85 -1.15,-0.85c-0.34,0 -0.56,-0.51 -0.56,-1.28c0,-1.58 -0.38,-1.75 7.26,3.08c9.27,5.9 9.27,5.9 6.41,5.9c-1.15,0 -2.01,-0.3 -2.56,-0.85l0.01,-0.03z" id="svg_60"/>
    <path d="m458.04,50.64c0,-0.68 -0.3,-0.85 -1.45,-0.85c-1.03,0 -1.84,-0.38 -2.82,-1.28c-0.77,-0.68 -1.71,-1.28 -2.14,-1.28c-0.38,0 -1.24,-0.47 -1.88,-1.07c-0.64,-0.6 -1.45,-1.07 -1.79,-1.07c-0.34,0 -0.73,-0.3 -0.85,-0.64c-0.17,-0.34 -0.51,-0.64 -0.85,-0.64c-0.38,0 -0.6,-0.47 -0.6,-1.32l0,-1.28l2.48,1.37c1.32,0.77 4.06,2.44 6.07,3.72c2.01,1.28 4.44,2.82 5.47,3.42c0.98,0.64 1.79,1.28 1.79,1.45c0,0.21 -0.77,0.34 -1.71,0.34c-1.41,0 -1.71,-0.13 -1.71,-0.85l-0.01,-0.02z" id="svg_61"/>
    <path d="m440.95,40.17c0,-0.38 -0.38,-0.64 -1.07,-0.64c-0.85,0 -1.07,-0.21 -1.07,-1.07c0,-0.94 -0.17,-1.07 -1.71,-1.07c-1.41,0 -1.71,-0.13 -1.71,-0.85c0,-0.64 -0.3,-0.85 -1.07,-0.85c-0.9,0 -1.07,-0.21 -1.07,-1.28l0,-1.28l3.12,2.09c1.67,1.11 4.19,2.69 5.55,3.5c1.32,0.77 2.44,1.58 2.44,1.75c0,0.21 -0.77,0.34 -1.71,0.34c-1.24,0 -1.71,-0.17 -1.71,-0.64l0.01,0z" id="svg_62"/>
    <path d="m411.9,36.54c0,-1.84 0.13,-2.14 0.85,-2.14c0.73,0 0.85,0.3 0.85,2.14c0,1.84 -0.13,2.14 -0.85,2.14c-0.73,0 -0.85,-0.3 -0.85,-2.14z" id="svg_63"/>
    <path d="m428.56,31.79l0,-1.28l1.71,0.94c0.94,0.56 1.71,1.11 1.71,1.32c0,0.17 -0.77,0.34 -1.71,0.34c-1.62,0 -1.71,-0.09 -1.71,-1.32z" id="svg_64"/>
    <path d="m411.9,30.3c0,-0.9 0.77,-2.31 1.28,-2.31c0.26,0 0.43,0.68 0.43,1.5c0,1.2 -0.17,1.5 -0.85,1.5c-0.47,0 -0.85,-0.3 -0.85,-0.68l-0.01,-0.01z" id="svg_65"/>
    <path d="m419.16,27.31c-0.6,-0.3 -1.58,-0.6 -2.22,-0.6c-1.79,0 -1.54,-1.2 0.3,-1.54c1.79,-0.3 4.83,0.68 5.98,1.97c0.77,0.85 0.73,0.85 -1.11,0.81c-1.03,-0.04 -2.35,-0.3 -2.95,-0.64z" id="svg_66"/>
   </g>
   <g fill="#f85125" id="svg_67">
    <path d="m9,158.09l0,-48.49l9.83,0l9.83,0l0,23.29c0,12.82 0.17,23.29 0.34,23.29c0.17,0 8.84,-10.47 19.23,-23.29l18.93,-23.29l12.22,0c11.45,0 12.18,0.04 11.62,0.73c-0.34,0.43 -8.8,10.42 -18.84,22.26c-10.08,11.79 -18.29,21.62 -18.29,21.79c0,0.17 7.99,10.51 17.77,22.94c9.74,12.48 18.88,24.14 20.29,25.98l2.56,3.29l-12.3,0l-12.3,-0.04l-14.31,-17.69c-7.86,-9.74 -14.44,-17.73 -14.61,-17.73c-0.17,0 -2.99,3.12 -6.28,6.96l-6.02,6.92l0,10.81l0,10.77l-9.83,0l-9.83,0l0,-48.49l-0.01,-0.01z" id="svg_68"/>
    <path d="m111.11,158.09l0,-48.49l35.25,0l35.25,0l0,9.4l0,9.4l-24.99,0l-24.99,0l0,10.04l0,10.04l22,0l22,0l0,9.4l0,9.4l-22,0l-22,0l0,10.25l0,10.25l24.99,0l24.99,0l0,9.4l0,9.4l-35.25,0l-35.25,0l0,-48.49z" id="svg_69"/>
    <path d="m218.01,159.93c10.81,-25.68 19.95,-47.51 20.34,-48.49l0.68,-1.84l9.44,0l9.44,0l20.25,48.19c11.11,26.49 20.29,48.28 20.38,48.49c0.09,0.17 -4.7,0.3 -10.64,0.3l-10.81,0l-14.14,-34.74c-7.78,-19.06 -14.27,-34.69 -14.44,-34.69c-0.17,0 -6.67,15.64 -14.44,34.74l-14.14,34.69l-10.77,0l-10.77,0l19.61,-46.66l0.01,0.01z" id="svg_70"/>
    <path d="m519.14,158.09l0,-48.49l10.04,0l10.04,0l0,23.33c0,13.5 0.17,23.2 0.38,23.07c0.21,-0.13 8.8,-10.64 19.1,-23.33l18.76,-23.07l12.05,0c6.67,0 12.09,0.09 12.09,0.21c0,0.21 -33.92,40.38 -36.83,43.62c-0.81,0.9 -0.73,0.98 19.53,26.87c11.15,14.27 20.29,26.02 20.29,26.11c0,0.09 -5.47,0.17 -12.13,0.17l-12.18,0l-14.36,-17.73c-7.9,-9.74 -14.53,-17.73 -14.7,-17.73c-0.17,0 -2.95,3.08 -6.15,6.84l-5.85,6.84l0,10.89l0,10.89l-10.04,0l-10.04,0l0,-48.49z" id="svg_71"/>
    <path d="m621.68,158.09l0,-48.49l35.25,0l35.25,0l0,9.4l0,9.4l-25.21,0l-25.21,0l0,10.04l0,10.04l22.22,0l22.22,0l0,9.4l0,9.4l-22.22,0l-22.22,0l0,10.25l0,10.25l25.21,0l25.21,0l0,9.4l0,9.4l-35.25,0l-35.25,0l0,-48.49z" id="svg_72"/>
    <path d="m708.84,206.45c0,-0.13 9.1,-21.88 20.25,-48.41l20.25,-48.24l9.48,0l9.48,0l20.04,47.64c11.02,26.19 20.12,47.98 20.29,48.41c0.21,0.68 -0.38,0.73 -10.51,0.64l-10.77,-0.13l-14.14,-34.69c-7.78,-19.1 -14.27,-34.74 -14.4,-34.74c-0.13,0 -6.58,15.64 -14.36,34.74l-14.14,34.69l-10.77,0.13c-5.9,0.04 -10.72,0.04 -10.72,-0.04l0.02,0z" id="svg_73"/>
    <path d="m415.36,140.44c-0.81,-0.38 -1.88,-1.28 -2.35,-1.92c-0.9,-1.2 -0.9,-1.37 -1.03,-54.82c-0.09,-59.05 -0.26,-55.71 2.56,-57.42c1.67,-1.03 4.32,-1.11 6.07,-0.21c0.64,0.34 1.37,0.64 1.58,0.64c0.38,0 7.31,4.27 7.65,4.74c0.13,0.13 0.68,0.43 1.28,0.6c0.9,0.26 4.83,2.82 5.55,3.63c0.13,0.13 0.94,0.6 1.84,1.03c0.85,0.47 1.58,0.98 1.58,1.2c0,0.17 0.26,0.34 0.6,0.34c0.34,0 0.9,0.26 1.2,0.56c0.3,0.26 1.28,0.85 2.14,1.32c0.85,0.43 1.97,1.15 2.44,1.58c0.47,0.47 1.03,0.81 1.28,0.81c0.21,0 0.47,0.3 0.64,0.64c0.13,0.34 0.51,0.64 0.85,0.64c0.34,0 1.15,0.47 1.79,1.07c0.64,0.6 1.5,1.07 1.92,1.07c0.43,0 1.03,0.3 1.41,0.64c0.34,0.34 0.85,0.64 1.11,0.64c0.26,0 0.34,0.21 0.21,0.43c-0.17,0.26 0.3,0.56 1.03,0.68c0.68,0.17 1.67,0.64 2.14,1.07c0.47,0.47 0.98,0.81 1.11,0.81c0.43,0 8.97,5.3 9.1,5.64c0.09,0.17 0.43,0.34 0.77,0.34c0.34,0 0.6,0.21 0.6,0.43c0,0.26 0.3,0.43 0.68,0.43c0.34,0 0.51,0.21 0.38,0.43c-0.13,0.26 0.13,0.43 0.6,0.43c0.51,0 0.9,0.17 0.9,0.38c0,0.21 0.51,0.51 1.11,0.64c0.64,0.17 1.03,0.43 0.85,0.56c-0.34,0.38 1.92,1.84 2.86,1.84c0.38,0 0.73,0.21 0.73,0.43c0,0.26 0.3,0.43 0.64,0.43c0.34,0 0.64,0.21 0.64,0.47c0,0.21 0.73,0.73 1.62,1.11c2.26,0.94 7.82,4.19 8.93,5.21c0.51,0.51 1.24,0.9 1.62,0.9c0.38,0 0.77,0.26 0.9,0.6c0.13,0.34 0.64,0.73 1.15,0.85c0.56,0.13 1.32,0.56 1.79,0.98c0.51,0.43 1.79,1.24 2.91,1.84c1.15,0.6 2.44,1.41 2.86,1.84c0.47,0.38 0.94,0.73 1.11,0.73c0.51,0 5.3,3.03 5.26,3.33c-0.13,0.85 0.13,1.37 0.68,1.37c0.34,0 0.64,0.38 0.64,0.85c0,0.47 -0.26,0.85 -0.51,0.85c-0.3,0 -0.85,0.56 -1.24,1.24c-0.85,1.45 -3.46,2.18 -7.86,2.18c-1.58,0 -2.78,0.17 -2.78,0.43c0,0.26 -1.37,0.43 -3.2,0.43l-3.2,0l0,1.5c0,1.03 -0.21,1.5 -0.64,1.5c-0.56,0 -0.64,2.82 -0.64,22.82c0,16.92 0.13,22.86 0.51,22.99c0.98,0.34 -0.09,2.48 -1.88,3.63l-1.75,1.2l-12.82,0.13c-10.13,0.09 -12.9,0 -13.16,-0.43c-0.3,-0.43 -0.38,-0.43 -0.38,0c0,0.34 -0.73,0.51 -2.14,0.51c-1.15,0 -2.14,-0.17 -2.14,-0.43c0,-0.64 -5,-0.56 -5.3,0.13c-0.21,0.43 -0.3,0.43 -0.51,0c-0.3,-0.64 -1.88,-0.73 -1.88,-0.13c0,0.68 -1.15,0.47 -1.45,-0.26c-0.21,-0.6 -0.9,-0.68 -4.36,-0.51c-2.95,0.13 -4.19,0.34 -4.49,0.77c-0.26,0.43 -0.38,0.47 -0.38,0.13c0,-0.38 -0.85,-0.56 -2.78,-0.56c-1.58,0 -2.78,0.17 -2.78,0.43c0,0.26 -2.73,0.43 -7.35,0.43c-6.2,0 -7.65,-0.13 -8.84,-0.77l0.02,-0.04zm46.83,-12.3c2.18,-1.62 2.22,-2.09 2.22,-26.02c0.04,-20.34 -0.04,-22.35 -0.73,-23.71c-1.41,-2.82 -2.26,-2.99 -15.38,-2.99c-12.86,0 -13.76,0.17 -15.17,2.52c-0.64,1.11 -0.73,3.33 -0.73,24.48c0,21.11 0.09,23.33 0.73,24.27c1.67,2.44 2.05,2.52 15.81,2.44c11.49,-0.09 12.09,-0.13 13.24,-0.98l0.01,-0.01z" id="svg_74"/>
    <path d="m447.44,125.75c-0.73,-0.73 -0.64,-1.92 0.21,-2.22c1.03,-0.43 2.18,0.85 1.58,1.75c-0.6,0.94 -1.15,1.11 -1.79,0.47z" id="svg_75"/>
    <path d="m435.4,100.62l0,-18.37l12.6,0l12.6,0l0,18.37l0,18.37l-12.6,0l-12.6,0l0,-18.37z" id="svg_76"/>
    <path d="m445.99,78.96c1.45,-0.09 3.85,-0.09 5.34,0c1.45,0.09 0.26,0.13 -2.69,0.13c-2.95,0 -4.14,-0.04 -2.65,-0.13z" id="svg_77"/>
   </g>
   <g fill="#079fe2" id="svg_78">
    <path d="m326.32,139.16c-1.5,-1.67 -1.58,-2.86 -1.58,-27.04c0,-23.58 0,-23.88 0.85,-23.88c0.77,0 0.85,0.3 0.85,3.42c0,3.08 0.09,3.42 0.81,3.42c0.47,0 0.9,0.38 1.07,0.98c0.73,2.91 1.11,13.71 0.9,24.65c-0.13,6.71 -0.21,12.95 -0.21,13.84c0.04,2.14 -0.9,5.38 -1.54,5.38c-0.26,0 -0.77,-0.34 -1.15,-0.77z" id="svg_79"/>
    <path d="m400.92,138.35c-0.43,-0.17 -0.56,-3.2 -0.56,-13.2l0,-12.99l-1.07,0c-1.03,0 -1.07,-0.09 -1.07,-2.78c0,-2.69 0.04,-2.78 1.07,-2.78l1.07,0l0,-5.26c0,-2.91 0.13,-8.5 0.3,-12.39l0.26,-7.14l1.24,0l1.24,0l-0.13,27.47c-0.13,29.82 -0.17,29.95 -2.35,29.05l0,0.02z" id="svg_80"/>
    <path d="m360.2,123.69c0,-0.81 0.3,-0.85 4.7,-0.85c4.4,0 4.7,0.04 4.7,0.85c0,0.81 -0.3,0.85 -4.7,0.85c-4.4,0 -4.7,-0.04 -4.7,-0.85z" id="svg_81"/>
    <path d="m377.8,120.28c-0.43,-0.73 -0.98,-0.85 -3.67,-0.85c-2.52,0 -3.2,-0.13 -3.42,-0.68c-0.21,-0.51 -0.09,-0.64 0.43,-0.43c0.34,0.13 4.1,0.26 8.33,0.26c7.22,0 7.65,0.04 7.65,0.81c0,0.73 -0.43,0.81 -3.72,0.98c-2.09,0.13 -4.06,0.34 -4.4,0.47c-0.43,0.21 -0.85,0 -1.2,-0.56z" id="svg_82"/>
    <path d="m348.66,119.47c0,-0.85 0.21,-0.9 3.59,-0.9c1.97,0 4.44,-0.13 5.55,-0.26c1.58,-0.26 1.97,-0.17 1.97,0.38c0,0.51 -0.77,0.68 -3.5,0.9c-1.97,0.13 -4.44,0.34 -5.55,0.51c-1.88,0.21 -2.05,0.17 -2.05,-0.64l-0.01,0.01z" id="svg_83"/>
    <path d="m342.26,119.25c0,-0.34 0.6,-0.73 1.32,-0.9c1.79,-0.38 4.23,0.09 4.23,0.85c0,0.51 -0.64,0.64 -2.78,0.64c-2.09,0 -2.78,-0.13 -2.78,-0.6l0.01,0.01z" id="svg_84"/>
    <path d="m390.96,108.78c0,-3.25 0.13,-7.09 0.26,-8.55c0.26,-2.18 0.43,-2.61 1.11,-2.61c0.9,0 0.9,-0.56 0.47,10.6c-0.21,5.98 -0.3,6.49 -1.03,6.49c-0.77,0 -0.81,-0.38 -0.81,-5.94l0,0.01z" id="svg_85"/>
    <path d="m342.68,98.7l0,-12.18l2.56,0c2.26,0 2.56,0.09 2.56,0.81c0,0.64 -0.34,0.9 -1.37,0.98c-1.28,0.13 -1.41,0.3 -1.75,2.05c-0.34,2.01 -0.09,16.15 0.38,18.93c0.26,1.54 0.21,1.58 -1.07,1.58l-1.32,0l0,-12.18l0.01,0.01z" id="svg_86"/>
    <path d="m384.13,109.81c0,-0.6 0.21,-1.07 0.43,-1.07c0.26,0 0.43,-0.3 0.43,-0.64c0,-0.38 0.38,-0.64 1.03,-0.64c0.77,0 1.07,0.3 1.28,1.32c0.38,2.05 0.38,2.09 -1.45,2.09c-1.54,0 -1.71,-0.09 -1.71,-1.07l-0.01,0.01z" id="svg_87"/>
    <path d="m336.7,87.38c0,-2.09 0.04,-2.14 1.28,-2.14c1.24,0 1.28,0.04 1.28,2.14c0,2.09 -0.04,2.14 -1.28,2.14c-1.24,0 -1.28,-0.04 -1.28,-2.14z" id="svg_88"/>
    <path d="m365.75,87.38c0,-0.81 0.3,-0.85 5.34,-0.85c5.04,0 5.34,0.04 5.34,0.85c0,0.81 -0.3,0.85 -5.34,0.85c-5.04,0 -5.34,-0.04 -5.34,-0.85z" id="svg_89"/>
    <path d="m384.13,87.38c0,-0.73 0.3,-0.85 1.67,-0.85c1.45,0 1.62,0.13 1.45,0.85c-0.17,0.64 -0.6,0.85 -1.67,0.85c-1.15,0 -1.45,-0.17 -1.45,-0.85z" id="svg_90"/>
    <path d="m305.68,81.74c0.13,-0.77 0.6,-1.67 1.03,-1.97c0.9,-0.68 1.11,-0.13 0.77,1.88c-0.21,1.11 -0.51,1.45 -1.2,1.45c-0.77,0 -0.85,-0.17 -0.6,-1.37l0,0.01z" id="svg_91"/>
    <path d="m314.06,75.54c0,-0.34 3.5,-2.69 4.02,-2.69c0.13,0 0.26,0.47 0.26,1.07c0,0.68 -0.26,1.07 -0.64,1.07c-0.34,0 -0.64,0.21 -0.64,0.43c0,0.26 -0.68,0.43 -1.5,0.43c-0.81,0 -1.5,-0.13 -1.5,-0.3l0,-0.01z" id="svg_92"/>
    <path d="m318.76,72.51c0,-0.43 11.71,-7.69 12.52,-7.73c0.17,-0.04 0.3,0.43 0.3,1.03c0,0.68 -0.26,1.07 -0.64,1.07c-0.34,0 -0.64,0.13 -0.64,0.34c0,0.17 -0.9,0.81 -2.01,1.37c-1.11,0.6 -2.31,1.32 -2.61,1.62c-0.3,0.26 -0.85,0.51 -1.2,0.51c-0.34,0 -0.6,0.21 -0.6,0.43c0,0.26 -0.21,0.43 -0.47,0.43c-0.26,0 -0.73,0.3 -1.07,0.64c-0.68,0.64 -3.59,0.9 -3.59,0.3l0.01,-0.01z" id="svg_93"/>
    <path d="m336.27,61.87c0.04,-0.43 0.94,-1.07 6.11,-4.36c5.3,-3.38 5.43,-3.42 5.43,-2.01c0,0.68 -0.26,1.11 -0.6,1.11c-0.34,0 -0.68,0.17 -0.77,0.38c-0.04,0.17 -1.79,1.41 -3.8,2.78c-2.52,1.62 -4.1,2.39 -5.04,2.39c-0.73,0 -1.32,-0.13 -1.32,-0.3l-0.01,0.01z" id="svg_94"/>
    <path d="m353.36,51.19c0,-0.34 10.77,-7.39 11.28,-7.39c0.13,0 0.26,0.47 0.26,1.07c0,0.6 -0.17,1.07 -0.43,1.07c-0.21,0 -0.81,0.38 -1.28,0.85c-0.47,0.47 -1.15,0.85 -1.5,0.85c-0.34,0 -0.64,0.17 -0.64,0.38c0,0.77 -5,3.46 -6.37,3.46c-0.73,0 -1.32,-0.13 -1.32,-0.3l0,0.01z" id="svg_95"/>
    <path d="m373.02,38.8c0,-0.21 1.97,-1.54 4.4,-3.03c2.39,-1.45 7.35,-4.49 10.98,-6.71c5.77,-3.59 6.84,-4.06 8.55,-4.06c2.05,0 3.85,0.9 4.96,2.52c0.64,0.85 0.6,0.9 -0.85,0.9c-0.85,0 -2.22,-0.38 -3.08,-0.81l-1.58,-0.85l-2.99,1.58c-1.67,0.85 -3.29,1.84 -3.63,2.14c-0.3,0.26 -0.85,0.51 -1.2,0.51c-0.34,0 -0.6,0.21 -0.6,0.43c0,0.26 -0.21,0.43 -0.43,0.43c-0.26,0 -0.81,0.34 -1.28,0.77c-0.43,0.38 -1.92,1.32 -3.29,2.01c-1.37,0.73 -2.52,1.41 -2.61,1.62c-0.09,0.17 -0.64,0.3 -1.2,0.3c-0.64,0 -1.03,0.26 -1.03,0.64c0,0.38 -0.38,0.64 -1.07,0.64c-0.68,0 -1.07,0.26 -1.07,0.64c0,0.43 -0.47,0.64 -1.5,0.64c-0.81,0 -1.5,-0.13 -1.5,-0.3l0.02,-0.01z" id="svg_96"/>
   </g>
   <g fill="#04a9f2" id="svg_97">
    <path d="m329.22,140.91c-0.47,-0.09 -1.28,-0.51 -1.84,-0.9c-0.85,-0.64 -0.9,-0.9 -0.47,-2.22c1.32,-4.32 1.37,-35.85 0.04,-40.59c-0.17,-0.6 -0.38,7.78 -0.51,18.59c-0.13,12.77 -0.34,19.61 -0.64,19.57c-0.26,-0.09 -0.51,-8.55 -0.64,-23.71c-0.13,-12.99 -0.38,-23.88 -0.56,-24.14c-0.26,-0.43 -2.48,-0.56 -8.63,-0.56l-8.25,0l-1.11,-1.32c-1.2,-1.41 -1.37,-2.52 -0.68,-4.49c0.34,-0.94 1.58,-1.92 5.26,-4.14c2.61,-1.58 7.99,-4.83 11.88,-7.26c3.89,-2.39 8.67,-5.3 10.6,-6.49c1.92,-1.15 5.55,-3.46 8.08,-5.08c2.52,-1.62 6.58,-4.19 9.06,-5.64c2.48,-1.45 6.62,-4.02 9.19,-5.68c6.54,-4.23 11.24,-7.18 19.44,-12.13c12.26,-7.43 15.55,-9.27 16.79,-9.27c1.54,0 5.73,1.97 6.28,2.95c0.64,1.2 0.85,54.73 0.21,54.73c-0.73,0 -1.07,10.47 -1.07,34.01c0,15.42 0.13,19.78 0.56,19.95c0.94,0.3 -0.64,2.52 -2.48,3.33c-1.62,0.77 -3.67,0.77 -35.68,0.73c-18.67,0 -34.35,-0.13 -34.82,-0.21l-0.01,-0.03zm49.09,-18.54c0.26,-0.21 0.21,-0.81 -0.09,-1.45c-0.3,-0.6 -0.51,-1.28 -0.51,-1.45c0,-0.21 1.58,-0.38 3.55,-0.47c1.92,-0.04 4.87,-0.21 6.49,-0.34l2.99,-0.3l0.34,-2.99c0.38,-3.76 0.38,-27.9 -0.04,-30.76l-0.3,-2.14l-25.38,-0.13c-20.04,-0.09 -25.46,0 -25.76,0.43c-0.17,0.3 -0.34,1.28 -0.34,2.18c0,1.11 -0.17,1.58 -0.64,1.58c-0.34,0 -0.64,0.38 -0.64,0.85c0,0.47 0.3,0.85 0.64,0.85c0.56,0 0.64,1.97 0.64,14.95l0,14.95l0.98,0.21c0.51,0.13 3.63,0.26 6.88,0.34c4.32,0.04 6.02,0.21 6.15,0.64c0.09,0.26 -0.13,0.51 -0.51,0.51c-0.77,0 -1.41,2.01 -0.85,2.56c0.81,0.81 25.55,0.77 26.4,-0.04l0,0.02zm21.49,-13.71c-0.09,-0.56 -0.17,-0.21 -0.17,0.73c-0.04,0.94 0.04,1.37 0.17,0.98c0.09,-0.43 0.09,-1.2 0,-1.71z" id="svg_98"/>
    <path d="m343.67,109.3c-0.17,-0.9 -0.34,-6.07 -0.34,-11.49c0,-7.56 0.13,-10.04 0.56,-10.55c0.51,-0.6 2.73,-0.68 20.29,-0.68c10.85,0 20.47,0.13 21.36,0.26l1.58,0.21l0,10.85c0,6.96 -0.17,10.85 -0.43,10.85c-0.21,0 -0.43,0.21 -0.43,0.47c0,0.26 -0.26,0.73 -0.6,1.07c-0.51,0.51 -3.93,0.6 -21.15,0.6l-20.51,0l-0.34,-1.58l0.01,-0.01z" id="svg_99"/>
   </g>
   <g fill="#f9a83a" id="svg_100">
    <path d="m329.18,225.59c-1.5,-0.73 -2.44,-1.58 -3.08,-2.73l-0.94,-1.67l0,-33.92l0,-33.97l0.98,-1.45c0.51,-0.77 1.62,-1.88 2.39,-2.39l1.45,-0.98l34.05,0l34.05,0l1.45,0.98c0.81,0.51 1.92,1.84 2.52,2.86l1.07,1.92l0,33.33c0,32.56 0,33.37 -0.85,34.78c-0.47,0.81 -1.58,2.05 -2.48,2.78l-1.67,1.32l-33.41,0.13l-33.37,0.09l-2.18,-1.07l0.02,-0.01zm52.38,-9.66c0.13,-0.17 0.77,-0.51 1.41,-0.77l1.15,-0.47l-0.09,-21.02l-0.13,-21.06l-8.55,-0.21l-8.55,-0.21l8.55,-0.21l8.55,-0.21l0.13,-5.94c0.09,-3.97 -0.04,-6.11 -0.38,-6.49c-0.68,-0.85 -42.34,-0.9 -43.02,-0.04c-0.34,0.38 -0.47,9.06 -0.51,27.73l0,27.17l1.32,1.11c1.5,1.28 4.49,1.58 4.91,0.47c0.38,-0.94 30.29,-0.98 30.63,-0.04c0.38,1.03 3.93,1.2 4.57,0.21l0.01,-0.02z" id="svg_101"/>
    <path d="m358.96,201.67c-0.81,-0.38 -1.75,-0.9 -2.09,-1.2c-0.51,-0.43 -0.47,-0.56 0.38,-0.73c0.64,-0.17 1.07,-0.6 1.15,-1.2c0.09,-0.51 0.34,-0.94 0.6,-0.94c0.26,0 0.81,-0.3 1.2,-0.64c0.64,-0.6 0.73,-0.56 0.68,0.3c-0.04,1.41 1.24,1.45 3.76,0.17c3.16,-1.62 4.44,-2.73 3.76,-3.2c-0.47,-0.26 -0.43,-0.38 0.13,-0.64c0.38,-0.13 1.11,-0.26 1.58,-0.26c0.77,0 0.85,0.17 0.64,1.54c-0.85,5.17 -7.26,8.84 -11.79,6.79l0,0.01z" id="svg_102"/>
    <path d="m361.52,196.16c0.09,-0.09 0.56,-0.34 1.07,-0.6c0.68,-0.38 0.9,-0.34 0.9,0.17c0,0.34 -0.43,0.6 -1.07,0.6c-0.6,0 -0.98,-0.09 -0.9,-0.17z" id="svg_103"/>
    <path d="m347.68,172.1c3.38,-0.09 8.84,-0.09 12.18,0c3.38,0.04 0.64,0.13 -6.07,0.13c-6.71,0 -9.44,-0.09 -6.11,-0.13z" id="svg_104"/>
    <path d="m352.51,167.66c0,-0.64 0.21,-0.85 0.94,-0.73c1.45,0.21 1.58,1.62 0.17,1.62c-0.85,0 -1.11,-0.21 -1.11,-0.9l0,0.01z" id="svg_105"/>
    <path d="m358.49,167.7c0,-0.64 0.3,-0.85 1.07,-0.85c0.77,0 1.07,0.21 1.07,0.85c0,0.64 -0.3,0.85 -1.07,0.85c-0.77,0 -1.07,-0.21 -1.07,-0.85z" id="svg_106"/>
    <path d="m352.51,162.36c0,-0.38 0.38,-0.64 1.07,-0.64c0.68,0 1.07,0.26 1.07,0.64c0,0.38 -0.38,0.64 -1.07,0.64c-0.68,0 -1.07,-0.26 -1.07,-0.64z" id="svg_107"/>
    <path d="m358.92,162.36c0,-0.34 0.38,-0.64 0.85,-0.64c0.47,0 0.85,0.3 0.85,0.64c0,0.34 -0.38,0.64 -0.85,0.64c-0.47,0 -0.85,-0.3 -0.85,-0.64z" id="svg_108"/>
   </g>
  </g>
 </g>
</svg>